<svg width="22" height="22" viewBox="0 0 22 22" fill="none" xmlns="http://www.w3.org/2000/svg">
<path d="M14.8503 14.2998C14.7044 14.2998 14.5645 14.3578 14.4614 14.4609C14.3582 14.564 14.3003 14.7039 14.3003 14.8498C14.3003 14.9957 14.3582 15.1356 14.4614 15.2387C14.5645 15.3419 14.7044 15.3998 14.8503 15.3998H17.0503C17.1962 15.3998 17.3361 15.3419 17.4392 15.2387C17.5423 15.1356 17.6003 14.9957 17.6003 14.8498C17.6003 14.7039 17.5423 14.564 17.4392 14.4609C17.3361 14.3578 17.1962 14.2998 17.0503 14.2998H14.8503Z" fill="#605FF6"/>
<path d="M2.2002 7.1499C2.2002 6.42056 2.48993 5.72108 3.00565 5.20536C3.52138 4.68963 4.22085 4.3999 4.9502 4.3999H17.0502C17.7795 4.3999 18.479 4.68963 18.9947 5.20536C19.5105 5.72108 19.8002 6.42056 19.8002 7.1499V14.8499C19.8002 15.5792 19.5105 16.2787 18.9947 16.7944C18.479 17.3102 17.7795 17.5999 17.0502 17.5999H4.9502C4.22085 17.5999 3.52138 17.3102 3.00565 16.7944C2.48993 16.2787 2.2002 15.5792 2.2002 14.8499V7.1499ZM3.3002 14.8499C3.3002 15.2875 3.47403 15.7072 3.78347 16.0166C4.0929 16.3261 4.51259 16.4999 4.9502 16.4999H17.0502C17.4878 16.4999 17.9075 16.3261 18.2169 16.0166C18.5264 15.7072 18.7002 15.2875 18.7002 14.8499V9.8999H3.3002V14.8499ZM18.7002 7.1499C18.7002 6.7123 18.5264 6.29261 18.2169 5.98318C17.9075 5.67374 17.4878 5.4999 17.0502 5.4999H4.9502C4.51259 5.4999 4.0929 5.67374 3.78347 5.98318C3.47403 6.29261 3.3002 6.7123 3.3002 7.1499V8.7999H18.7002V7.1499Z" fill="#605FF6"/>
</svg>
