<svg width="22" height="22" viewBox="0 0 22 22" fill="none" xmlns="http://www.w3.org/2000/svg">
<path d="M20.181 9.30069L11.6479 1.45025C11.3705 1.19504 11.0052 1.05692 10.6283 1.06477C10.2515 1.07262 9.89222 1.22582 9.62569 1.49236L1.77775 9.34035L1.375 9.74305V21.3126H8.9375V14.0938H13.0625V21.3126H20.625V9.70923L20.181 9.30069ZM10.6579 2.43948C10.67 2.43948 10.6625 2.4421 10.6573 2.44721C10.652 2.4421 10.6458 2.43948 10.6579 2.43948ZM19.25 19.9376H14.4375V14.0938C14.4375 13.7292 14.2926 13.3794 14.0348 13.1216C13.7769 12.8637 13.4272 12.7188 13.0625 12.7188H8.9375C8.57283 12.7188 8.22309 12.8637 7.96523 13.1216C7.70737 13.3794 7.5625 13.7292 7.5625 14.0938V19.9376H2.75V10.3126L10.6579 2.46461C10.6584 2.4641 10.6585 2.46363 10.6589 2.46311L19.25 10.3126V19.9376Z" fill="#605FF6"/>
</svg>
