<svg width="22" height="22" viewBox="0 0 22 22" fill="none" xmlns="http://www.w3.org/2000/svg">
<path d="M6.05825 4.59525C7.43254 3.41019 9.18534 2.75569 11 2.75C14.6988 2.75 17.7691 5.5 18.1033 9.04612C20.2923 9.3555 22 11.1884 22 13.4379C22 15.9074 19.9403 17.875 17.4446 17.875H5.19887C2.3485 17.875 0 15.6282 0 12.8122C0 10.3881 1.74075 8.38062 4.04525 7.87187C4.24187 6.68525 5.005 5.50275 6.05825 4.59525V4.59525ZM6.95613 5.63612C5.91525 6.534 5.37075 7.61613 5.37075 8.46313V9.07913L4.75887 9.1465C2.838 9.35687 1.375 10.934 1.375 12.8122C1.375 14.8294 3.06625 16.5 5.19887 16.5H17.4446C19.2225 16.5 20.625 15.1085 20.625 13.4379C20.625 11.7659 19.2225 10.3744 17.4446 10.3744H16.7571V9.68688C16.7585 6.63438 14.201 4.125 11 4.125C9.51483 4.13093 8.08066 4.66735 6.95613 5.6375V5.63612Z" fill="#605FF6"/>
</svg>
