<svg width="77" height="77" viewBox="0 0 77 77" fill="none" xmlns="http://www.w3.org/2000/svg">
<path d="M59.6751 62.5621H67.3751V68.9787H48.1251V49.7287H54.5418V58.4875C60.413 53.7712 64.1668 46.5846 64.1668 38.4996C64.1668 25.4417 54.3493 14.6296 41.7084 13.0575V6.57666C57.9105 8.18083 70.5834 21.8483 70.5834 38.4996C70.5834 48.0925 66.3484 56.6908 59.6751 62.5621ZM12.8334 38.4996C12.8334 30.4146 16.5872 23.1958 22.4584 18.5117V27.2704H28.8751V8.02041H9.62508V14.4371H17.3251C10.6517 20.3083 6.41675 28.9067 6.41675 38.4996C6.41675 55.1508 19.0897 68.8183 35.2917 70.4225V63.9417C22.6509 62.3696 12.8334 51.5575 12.8334 38.4996ZM52.1034 26.0192L33.9442 44.1783L24.8647 35.0987L20.3409 39.6225L33.9442 53.2258L56.6272 30.5429L52.1034 26.0192Z" fill="#605FF6"/>
</svg>
