<svg width="127" height="127" viewBox="0 0 127 127" fill="none" xmlns="http://www.w3.org/2000/svg">
<path fill-rule="evenodd" clip-rule="evenodd" d="M34.9726 30.6051C42.906 23.7641 53.0244 19.9859 63.5 19.953C84.8519 19.953 102.576 35.828 104.505 56.2988C117.142 58.0848 127 68.6654 127 81.6512C127 95.9069 115.11 107.266 100.703 107.266H30.0117C13.5572 107.266 0 94.2956 0 78.0396C0 64.0458 10.0489 52.4571 23.3521 49.5202C24.4872 42.6701 28.8925 35.8439 34.9726 30.6051V30.6051ZM40.1558 36.6138C34.1471 41.797 31.0039 48.0438 31.0039 52.9333V56.4893L27.4717 56.8783C16.383 58.0927 7.9375 67.197 7.9375 78.0396C7.9375 89.6839 17.7006 99.328 30.0117 99.328H100.703C110.966 99.328 119.062 91.2953 119.062 81.6512C119.062 71.9992 110.966 63.9664 100.703 63.9664H96.7343V59.9977C96.7423 42.3764 81.9785 27.8905 63.5 27.8905C54.9265 27.9248 46.6474 31.0213 40.1558 36.6218V36.6138Z" fill="#A3A3FA"/>
<path fill-rule="evenodd" clip-rule="evenodd" d="M82.1899 52.869C82.5595 53.2376 82.8527 53.6756 83.0528 54.1578C83.2529 54.6399 83.3559 55.1568 83.3559 55.6788C83.3559 56.2009 83.2529 56.7178 83.0528 57.1999C82.8527 57.6821 82.5595 58.1201 82.1899 58.4887L58.3774 82.3012C58.0087 82.6708 57.5708 82.964 57.0886 83.1641C56.6064 83.3642 56.0895 83.4672 55.5675 83.4672C55.0455 83.4672 54.5286 83.3642 54.0464 83.1641C53.5643 82.964 53.1263 82.6708 52.7576 82.3012L40.8514 70.395C40.4824 70.026 40.1897 69.5879 39.99 69.1058C39.7903 68.6237 39.6875 68.1069 39.6875 67.5851C39.6875 67.0633 39.7903 66.5465 39.99 66.0644C40.1897 65.5823 40.4824 65.1442 40.8514 64.7752C41.2204 64.4062 41.6585 64.1135 42.1406 63.9138C42.6227 63.7141 43.1394 63.6113 43.6613 63.6113C44.1831 63.6113 44.6998 63.7141 45.182 63.9138C45.6641 64.1135 46.1021 64.4062 46.4711 64.7752L55.5675 73.8795L76.5702 52.869C76.9388 52.4994 77.3768 52.2061 77.8589 52.0061C78.3411 51.806 78.858 51.703 79.38 51.703C79.9021 51.703 80.419 51.806 80.9011 52.0061C81.3833 52.2061 81.8212 52.4994 82.1899 52.869V52.869Z" fill="#99E7FC" fill-opacity="0.69"/>
</svg>
