<svg width="22" height="22" viewBox="0 0 22 22" fill="none" xmlns="http://www.w3.org/2000/svg">
<path d="M18.3332 5.50016C18.3332 3.51283 14.9754 1.8335 10.9998 1.8335C7.02425 1.8335 3.6665 3.51283 3.6665 5.50016V7.3335C3.6665 9.32083 7.02425 11.0002 10.9998 11.0002C14.9754 11.0002 18.3332 9.32083 18.3332 7.3335V5.50016ZM10.9998 17.4168C7.02425 17.4168 3.6665 15.7375 3.6665 13.7502V16.5002C3.6665 18.4875 7.02425 20.1668 10.9998 20.1668C14.9754 20.1668 18.3332 18.4875 18.3332 16.5002V13.7502C18.3332 15.7375 14.9754 17.4168 10.9998 17.4168Z" fill="#605FF6"/>
<path d="M18.3332 9.1665C18.3332 11.1538 14.9754 12.8332 10.9998 12.8332C7.02425 12.8332 3.6665 11.1538 3.6665 9.1665V11.9165C3.6665 13.9038 7.02425 15.5832 10.9998 15.5832C14.9754 15.5832 18.3332 13.9038 18.3332 11.9165V9.1665Z" fill="#605FF6"/>
</svg>
