<svg width="74" height="74" viewBox="0 0 74 74" fill="none" xmlns="http://www.w3.org/2000/svg">
<path d="M37 0C16.5998 0 0 16.5952 0 36.9977C0 57.4002 16.5998 73.9954 37 73.9954C57.4002 73.9954 74 57.4002 74 36.9977C74 16.5952 57.4002 0 37 0ZM37 71.531C17.9589 71.531 2.46897 56.0388 2.46897 36.9977C2.46897 17.9566 17.9589 2.46436 37 2.46436C56.0411 2.46436 71.531 17.9566 71.531 36.9977C71.531 56.0388 56.0411 71.531 37 71.531Z" fill="white"/>
<path d="M45.0765 16.231H38.9202C31.0795 16.1526 30.078 21.0051 30.078 26.2569V30.0757H26.6169C26.4604 30.0548 26.3013 30.0703 26.1518 30.1209C26.0023 30.1715 25.8665 30.2559 25.7548 30.3675C25.6432 30.4791 25.5589 30.6149 25.5083 30.7644C25.4577 30.9139 25.4422 31.073 25.4631 31.2295V38.1518C25.4422 38.3083 25.4577 38.4674 25.5083 38.6169C25.5589 38.7664 25.6432 38.9022 25.7548 39.0139C25.8665 39.1255 26.0023 39.2098 26.1518 39.2604C26.3013 39.311 26.4604 39.3265 26.6169 39.3056H30.078V56.6115C30.0588 56.7682 30.0757 56.9272 30.1273 57.0764C30.1789 57.2256 30.264 57.3611 30.376 57.4724C30.488 57.5837 30.6239 57.668 30.7734 57.7187C30.923 57.7694 31.0821 57.7853 31.2387 57.7652H38.288C38.9687 57.8436 39.5201 57.2922 39.3032 56.6115L39.3079 39.3056H45.0765C45.2329 39.3265 45.3921 39.311 45.5416 39.2604C45.6911 39.2098 45.8269 39.1255 45.9385 39.0139C46.0501 38.9022 46.1345 38.7664 46.1851 38.6169C46.2357 38.4674 46.2511 38.3083 46.2302 38.1518V31.2295C46.2511 31.073 46.2357 30.9139 46.1851 30.7644C46.1345 30.6149 46.0501 30.4791 45.9385 30.3675C45.8269 30.2559 45.6911 30.1715 45.5416 30.1209C45.3921 30.0703 45.2329 30.0548 45.0765 30.0757H39.3009L39.3079 26.6146C39.5317 25.1401 39.5317 25.3801 40.9 25.4608H45.028C45.3488 25.3893 45.6903 25.4285 45.9302 25.1955C46.1702 24.9624 46.3087 24.644 46.2279 24.3071V17.3848C46.2492 17.2284 46.2341 17.0693 46.1838 16.9198C46.1335 16.7703 46.0494 16.6344 45.9379 16.5227C45.8265 16.4111 45.6908 16.3266 45.5414 16.276C45.3919 16.2254 45.2328 16.21 45.0765 16.231V16.231ZM43.842 23.0242L40.9485 22.9134C37.365 22.9134 37.065 24.8586 37.065 26.8499L37.0558 31.2249C37.0555 31.3869 37.0871 31.5473 37.1489 31.6971C37.2107 31.8469 37.3014 31.983 37.4159 32.0976C37.5303 32.2123 37.6662 32.3033 37.8159 32.3653C37.9655 32.4274 38.126 32.4593 38.288 32.4593H43.9228V36.9173H38.2926C37.9656 36.9173 37.6519 37.0471 37.4205 37.2781C37.189 37.5091 37.0587 37.8225 37.0581 38.1495L37.0558 55.4577H32.3855V38.1518C32.3855 37.4711 31.9217 36.9196 31.2387 36.9196H27.7706V32.4617H31.2387C31.4006 32.4619 31.561 32.4302 31.7106 32.3685C31.8603 32.3067 31.9963 32.2161 32.1109 32.1017C32.3417 31.8686 32.3832 31.5548 32.3832 31.2272V26.2546C32.3832 21.0813 33.4285 18.6169 38.9179 18.6169H43.8397V23.0242H43.842Z" fill="white"/>
</svg>
