<svg width="39" height="39" viewBox="0 0 39 39" fill="none" xmlns="http://www.w3.org/2000/svg">
<path d="M19.5 0C15.6433 0 11.8731 1.14365 8.66639 3.28634C5.45963 5.42903 2.96027 8.47451 1.48436 12.0377C0.00844904 15.6008 -0.377716 19.5216 0.374696 23.3043C1.12711 27.0869 2.9843 30.5614 5.71143 33.2886C8.43855 36.0157 11.9131 37.8729 15.6957 38.6253C19.4784 39.3777 23.3992 38.9916 26.9623 37.5156C30.5255 36.0397 33.571 33.5404 35.7137 30.3336C37.8563 27.1269 39 23.3567 39 19.5C39 16.9392 38.4956 14.4035 37.5157 12.0377C36.5357 9.67182 35.0993 7.52216 33.2886 5.71142C31.4778 3.90067 29.3282 2.46432 26.9623 1.48435C24.5965 0.504382 22.0608 0 19.5 0V0ZM24.7845 22.0155C24.9673 22.1968 25.1123 22.4124 25.2113 22.6501C25.3103 22.8877 25.3613 23.1426 25.3613 23.4C25.3613 23.6574 25.3103 23.9123 25.2113 24.1499C25.1123 24.3875 24.9673 24.6032 24.7845 24.7845C24.6032 24.9673 24.3876 25.1123 24.1499 25.2113C23.9123 25.3103 23.6574 25.3613 23.4 25.3613C23.1426 25.3613 22.8877 25.3103 22.6501 25.2113C22.4125 25.1123 22.1968 24.9673 22.0155 24.7845L19.5 22.2495L16.9845 24.7845C16.8032 24.9673 16.5876 25.1123 16.3499 25.2113C16.1123 25.3103 15.8574 25.3613 15.6 25.3613C15.3426 25.3613 15.0877 25.3103 14.8501 25.2113C14.6125 25.1123 14.3968 24.9673 14.2155 24.7845C14.0327 24.6032 13.8877 24.3875 13.7887 24.1499C13.6897 23.9123 13.6387 23.6574 13.6387 23.4C13.6387 23.1426 13.6897 22.8877 13.7887 22.6501C13.8877 22.4124 14.0327 22.1968 14.2155 22.0155L16.7505 19.5L14.2155 16.9845C13.8483 16.6173 13.642 16.1193 13.642 15.6C13.642 15.0807 13.8483 14.5827 14.2155 14.2155C14.5827 13.8483 15.0807 13.642 15.6 13.642C16.1193 13.642 16.6173 13.8483 16.9845 14.2155L19.5 16.7505L22.0155 14.2155C22.3827 13.8483 22.8807 13.642 23.4 13.642C23.9193 13.642 24.4173 13.8483 24.7845 14.2155C25.1517 14.5827 25.358 15.0807 25.358 15.6C25.358 16.1193 25.1517 16.6173 24.7845 16.9845L22.2495 19.5L24.7845 22.0155Z" fill="#605FF6"/>
</svg>
