<svg width="22" height="24" viewBox="0 0 22 24" fill="none" xmlns="http://www.w3.org/2000/svg">
<path d="M19.2938 17.6894C18.8423 16.679 18.1871 15.7612 17.3646 14.9872C16.5446 14.2109 15.5733 13.592 14.5042 13.1646C14.4947 13.1601 14.4851 13.1578 14.4755 13.1533C15.9667 12.1357 16.9361 10.4781 16.9361 8.60804C16.9361 5.51005 14.2792 3 11 3C7.72077 3 5.06387 5.51005 5.06387 8.60804C5.06387 10.4781 6.03328 12.1357 7.52449 13.1555C7.51492 13.16 7.50534 13.1623 7.49577 13.1668C6.42343 13.5942 5.46121 14.207 4.63541 14.9894C3.81371 15.7641 3.15857 16.6817 2.70617 17.6917C2.26173 18.6805 2.02204 19.7406 2.00006 20.8146C1.99942 20.8387 2.0039 20.8627 2.01324 20.8852C2.02258 20.9077 2.03658 20.9281 2.05442 20.9454C2.07227 20.9627 2.0936 20.9764 2.11715 20.9858C2.1407 20.9952 2.16599 21 2.19155 21H3.62771C3.73303 21 3.8168 20.9209 3.8192 20.8236C3.86707 19.0779 4.60908 17.443 5.92078 16.2038C7.27795 14.9216 9.08033 14.2161 11 14.2161C12.9197 14.2161 14.722 14.9216 16.0792 16.2038C17.3909 17.443 18.1329 19.0779 18.1808 20.8236C18.1832 20.9231 18.267 21 18.3723 21H19.8085C19.834 21 19.8593 20.9952 19.8829 20.9858C19.9064 20.9764 19.9277 20.9627 19.9456 20.9454C19.9634 20.9281 19.9774 20.9077 19.9868 20.8852C19.9961 20.8627 20.0006 20.8387 19.9999 20.8146C19.976 19.7337 19.739 18.6822 19.2938 17.6894V17.6894ZM11 12.4975C9.90134 12.4975 8.8673 12.0927 8.08938 11.3578C7.31146 10.6229 6.88301 9.64598 6.88301 8.60804C6.88301 7.5701 7.31146 6.59322 8.08938 5.85829C8.8673 5.12337 9.90134 4.71859 11 4.71859C12.0987 4.71859 13.1327 5.12337 13.9106 5.85829C14.6885 6.59322 15.117 7.5701 15.117 8.60804C15.117 9.64598 14.6885 10.6229 13.9106 11.3578C13.1327 12.0927 12.0987 12.4975 11 12.4975Z" fill="#5D6BC4" fill-opacity="0.67"/>
</svg>
