<svg width="22" height="24" viewBox="0 0 22 24" fill="none" xmlns="http://www.w3.org/2000/svg">
<path d="M17.625 7.66667H16.4375V5.7619C16.4375 3.13333 13.7775 1 10.5 1C7.2225 1 4.5625 3.13333 4.5625 5.7619V7.66667H3.375C2.06875 7.66667 1 8.52381 1 9.57143V19.0952C1 20.1429 2.06875 21 3.375 21H17.625C18.9313 21 20 20.1429 20 19.0952V9.57143C20 8.52381 18.9313 7.66667 17.625 7.66667ZM6.9375 5.7619C6.9375 4.18095 8.52875 2.90476 10.5 2.90476C12.4713 2.90476 14.0625 4.18095 14.0625 5.7619V7.66667H6.9375V5.7619ZM17.625 19.0952H3.375V9.57143H17.625V19.0952ZM10.5 16.2381C11.8063 16.2381 12.875 15.381 12.875 14.3333C12.875 13.2857 11.8063 12.4286 10.5 12.4286C9.19375 12.4286 8.125 13.2857 8.125 14.3333C8.125 15.381 9.19375 16.2381 10.5 16.2381Z" fill="#5D6BC4" fill-opacity="0.67"/>
</svg>
