<svg width="22" height="22" viewBox="0 0 22 22" fill="none" xmlns="http://www.w3.org/2000/svg">
<path d="M11.3931 0C9.90348 0 8.61442 0.544271 7.52588 1.63281C6.43734 2.72135 5.89307 4.01042 5.89307 5.5V8.25C5.11963 8.25 4.46794 8.51497 3.93799 9.04492C3.40804 9.57487 3.14307 10.2266 3.14307 11V19.25C3.14307 20.0234 3.40804 20.6751 3.93799 21.2051C4.46794 21.735 5.11963 22 5.89307 22H16.8931C17.6665 22 18.3182 21.735 18.8481 21.2051C19.3781 20.6751 19.6431 20.0234 19.6431 19.25V11C19.6431 10.2266 19.3781 9.57487 18.8481 9.04492C18.3182 8.51497 17.6665 8.25 16.8931 8.25V5.5C16.8931 4.01042 16.3488 2.72135 15.2603 1.63281C14.1717 0.544271 12.8827 0 11.3931 0ZM17.7954 11V19.25C17.7954 19.8516 17.4946 20.1523 16.8931 20.1523H5.89307C5.2915 20.1523 4.99072 19.8516 4.99072 19.25V11C4.99072 10.3984 5.2915 10.0977 5.89307 10.0977H16.8931C17.4946 10.0977 17.7954 10.3984 17.7954 11ZM7.74072 8.25V5.5C7.74072 4.4974 8.0988 3.63802 8.81494 2.92188C9.53109 2.20573 10.3905 1.84766 11.3931 1.84766C12.3957 1.84766 13.255 2.20573 13.9712 2.92188C14.6873 3.63802 15.0454 4.4974 15.0454 5.5V8.25H7.74072ZM11.3931 11C10.6196 11 9.96794 11.265 9.43799 11.7949C8.90804 12.3249 8.64307 12.9766 8.64307 13.75C8.64307 14.3229 8.81494 14.8457 9.15869 15.3184C9.50244 15.791 9.94645 16.1276 10.4907 16.3281V17.4023C10.4907 18.0326 10.7915 18.3477 11.3931 18.3477C11.9946 18.3477 12.2954 18.0326 12.2954 17.4023V16.3281C13.5272 15.8984 14.1431 15.0391 14.1431 13.75C14.1431 12.9766 13.8781 12.3249 13.3481 11.7949C12.8182 11.265 12.1665 11 11.3931 11ZM11.3931 14.6523C10.7915 14.6523 10.4907 14.3516 10.4907 13.75C10.4907 13.1484 10.7915 12.8477 11.3931 12.8477C11.9946 12.8477 12.2954 13.1484 12.2954 13.75C12.2954 14.3516 11.9946 14.6523 11.3931 14.6523Z" fill="#605FF6"/>
</svg>
