<svg width="73" height="73" viewBox="0 0 73 73" fill="none" xmlns="http://www.w3.org/2000/svg">
<path d="M43.9132 26.9236C42.3903 26.9236 41.2626 27.3077 40.3798 27.7929C40.2383 27.2897 39.7733 26.9213 39.2252 27.0314H32.5223C31.8597 26.9213 31.3228 27.4582 31.5272 28.1546V52.8637C31.3228 53.4927 31.8597 54.0318 32.5223 53.9869H39.2252C39.8879 54.0318 40.4248 53.4927 40.4248 52.83L40.4225 37.8967C40.4203 37.89 40.3955 37.1757 40.8471 36.6837C41.2087 36.2929 41.8309 36.0929 42.6913 36.0929C44.1244 36.0929 44.7623 36.6792 45.0004 37.9911V52.83C44.7646 53.4927 45.3014 54.0318 45.9641 53.9869H53.0287C53.6913 54.0318 54.2282 53.4927 53.9901 52.83V37.4924C54.2259 29.6933 48.6709 26.9236 43.9132 26.9236V26.9236ZM51.8269 51.7406H47.1636V37.9911C47.1636 35.3382 45.4497 33.6939 42.6935 33.6939C41.1346 33.6939 39.9216 34.1521 39.086 35.0552C37.9246 36.3131 38.0145 37.9079 38.2638 38.2629V51.7406H33.7218V29.3226H38.0257V30.0774C38.024 30.3022 38.0857 30.523 38.2038 30.7143C38.3218 30.9057 38.4915 31.0598 38.6933 31.159C38.895 31.2583 39.1207 31.2986 39.3443 31.2753C39.568 31.2521 39.7805 31.1662 39.9575 31.0276L40.272 30.785C41.1817 30.0684 42.1229 29.3249 43.9155 29.3249C45.7709 29.3249 51.8292 29.9156 51.8292 37.4946V51.7406H51.8269Z" fill="white"/>
<path d="M24.7855 15.7241C22.2652 15.7241 20.2166 17.7727 20.2166 20.2931C20.2166 22.8134 22.2652 24.862 24.7855 24.862C27.3058 24.862 29.3545 22.8134 29.3545 20.2931C29.3545 17.7727 27.3058 15.7241 24.7855 15.7241ZM24.7855 22.463C23.5905 22.463 22.6156 21.4881 22.6156 20.2931C22.6156 19.098 23.5905 18.1232 24.7855 18.1232C25.9805 18.1232 26.9554 19.098 26.9554 20.2931C26.9554 21.4881 25.9805 22.463 24.7855 22.463Z" fill="white"/>
<path d="M27.9935 26.9214H21.3265C20.6638 26.9214 20.127 27.4582 20.2932 28.1546V52.8638C20.127 53.4927 20.6638 54.0318 21.3265 53.9869H27.9935C28.6561 54.0318 29.193 53.4927 29.193 52.8301V28.1209C29.193 27.8028 29.0666 27.4977 28.8417 27.2727C28.6167 27.0478 28.3116 26.9214 27.9935 26.9214ZM27.0321 51.7406H22.526V29.3227H27.0321V51.7406Z" fill="white"/>
<path d="M36.017 0C16.1553 0 0 16.1553 0 36.017C0 55.8787 16.1553 72.034 36.017 72.034C55.8787 72.034 72.034 55.8787 72.034 36.017C72.034 16.1553 55.8787 0 36.017 0ZM36.017 69.635C17.4806 69.635 2.39904 54.5534 2.39904 36.017C2.39904 17.4806 17.4806 2.39904 36.017 2.39904C54.5534 2.39904 69.635 17.4806 69.635 36.017C69.635 54.5534 54.5534 69.635 36.017 69.635Z" fill="white"/>
</svg>
