<svg width="58" height="58" viewBox="0 0 58 58" fill="none" xmlns="http://www.w3.org/2000/svg">
<path d="M29.1449 33.1729C28.2775 33.1794 27.4373 33.4763 26.7582 34.016C26.0792 34.5558 25.6004 35.3074 25.3983 36.151C25.1963 36.9945 25.2825 37.8815 25.6432 38.6703C26.004 39.4592 26.6185 40.1045 27.3888 40.5034V45.1112H30.611V40.6484C31.4429 40.3075 32.1307 39.6885 32.557 38.897C32.9834 38.1055 33.1218 37.1906 32.9488 36.3084C32.7758 35.4262 32.302 34.6313 31.6083 34.0595C30.9146 33.4877 30.0439 33.1743 29.1449 33.1729V33.1729Z" fill="#99E7FC"/>
<path d="M41.8889 24.1672V17.2716C41.9581 13.7786 40.6409 10.4003 38.2253 7.87609C35.8098 5.35188 32.4928 3.88726 29.0001 3.80273C25.5073 3.88726 22.1903 5.35188 19.7748 7.87609C17.3593 10.4003 16.042 13.7786 16.1112 17.2716V24.1672H11.2778V51.5561C11.2778 52.4107 11.6173 53.2302 12.2216 53.8345C12.8259 54.4388 13.6455 54.7783 14.5001 54.7783H43.5001C44.3546 54.7783 45.1742 54.4388 45.7785 53.8345C46.3828 53.2302 46.7223 52.4107 46.7223 51.5561V24.1672H41.8889ZM19.3334 17.2716C19.2639 14.633 20.2417 12.0742 22.053 10.1542C23.8643 8.2342 26.3619 7.10919 29.0001 7.02496C31.6382 7.10919 34.1358 8.2342 35.9471 10.1542C37.7584 12.0742 38.7362 14.633 38.6667 17.2716V24.1672H19.3334V17.2716ZM14.5001 51.5561V27.3894H43.5001V51.5561H14.5001Z" fill="#A3A3FA"/>
</svg>
