<svg width="22" height="22" viewBox="0 0 22 22" fill="none" xmlns="http://www.w3.org/2000/svg">
<g clip-path="url(#clip0)">
<path d="M14.8952 10.2417L13.7694 9.32501C13.8227 9.01401 13.8502 8.69645 13.8502 8.3789C13.8502 8.06135 13.8227 7.7438 13.7694 7.43279L14.8952 6.51615C14.9801 6.44692 15.0409 6.35471 15.0695 6.25179C15.098 6.14887 15.093 6.04011 15.0551 5.93997L15.0396 5.89741C14.7297 5.07248 14.2656 4.30775 13.6697 3.64017L13.6388 3.6058C13.5665 3.52486 13.4702 3.46668 13.3625 3.43892C13.2548 3.41116 13.1408 3.41513 13.0355 3.4503L11.6382 3.92335C11.1226 3.52068 10.5468 3.20313 9.92459 2.98052L9.65475 1.58918C9.63439 1.48449 9.58107 1.38818 9.50186 1.31304C9.42265 1.2379 9.32132 1.18749 9.21131 1.16851L9.16491 1.16032C8.26944 1.00646 7.32756 1.00646 6.43209 1.16032L6.38569 1.16851C6.27568 1.18749 6.17434 1.2379 6.09514 1.31304C6.01593 1.38818 5.96261 1.48449 5.94225 1.58918L5.67069 2.98706C5.05346 3.20972 4.47868 3.52711 3.96912 3.92663L2.56147 3.4503C2.45622 3.41485 2.34214 3.41074 2.23438 3.43851C2.12662 3.46629 2.03029 3.52463 1.95819 3.6058L1.92725 3.64017C1.33213 4.30822 0.868114 5.07282 0.557406 5.89741L0.541937 5.93997C0.464593 6.14458 0.528187 6.37374 0.701781 6.51615L1.84131 7.44262C1.78803 7.75035 1.76225 8.06462 1.76225 8.37727C1.76225 8.69154 1.78803 9.00582 1.84131 9.31192L0.701781 10.2384C0.616867 10.3076 0.556093 10.3998 0.527541 10.5027C0.498988 10.6057 0.504009 10.7144 0.541937 10.8146L0.557406 10.8571C0.8685 11.6821 1.32912 12.4432 1.92725 13.1144L1.95819 13.1487C2.03047 13.2297 2.1268 13.2879 2.2345 13.3156C2.34219 13.3434 2.45619 13.3394 2.56147 13.3042L3.96912 12.8279C4.48131 13.2289 5.05366 13.5465 5.67069 13.7675L5.94225 15.1654C5.96261 15.27 6.01593 15.3664 6.09514 15.4415C6.17434 15.5166 6.27568 15.567 6.38569 15.586L6.43209 15.5942C7.33579 15.7489 8.26121 15.7489 9.16491 15.5942L9.21131 15.586C9.32132 15.567 9.42265 15.5166 9.50186 15.4415C9.58107 15.3664 9.63439 15.27 9.65475 15.1654L9.92459 13.774C10.5465 13.552 11.1256 13.2334 11.6382 12.8312L13.0355 13.3042C13.1408 13.3397 13.2549 13.3438 13.3626 13.316C13.4704 13.2882 13.5667 13.2299 13.6388 13.1487L13.6697 13.1144C14.2679 12.4416 14.7285 11.6821 15.0396 10.8571L15.0551 10.8146C15.1324 10.6132 15.0688 10.3841 14.8952 10.2417V10.2417ZM12.5491 7.62594C12.5921 7.87311 12.6144 8.12683 12.6144 8.38054C12.6144 8.63425 12.5921 8.88797 12.5491 9.13513L12.4357 9.79152L13.7196 10.8375C13.525 11.2645 13.2793 11.6688 12.9874 12.0422L11.3924 11.5037L10.8527 11.926C10.4419 12.2468 9.98475 12.4989 9.48975 12.6757L8.83491 12.9098L8.52725 14.4975C8.04182 14.5499 7.55174 14.5499 7.06631 14.4975L6.75866 12.9065L6.10897 12.6691C5.61912 12.4923 5.16366 12.2403 4.75631 11.9211L4.21662 11.4971L2.61131 12.0406C2.31912 11.6657 2.07506 11.2614 1.87912 10.8358L3.17678 9.78006L3.06506 9.12531C3.02381 8.88142 3.00147 8.62934 3.00147 8.38054C3.00147 8.1301 3.02209 7.87966 3.06506 7.63577L3.17678 6.98102L1.87912 5.92524C2.07334 5.49802 2.31912 5.09535 2.61131 4.72051L4.21662 5.26395L4.75631 4.84C5.16366 4.52081 5.61912 4.26873 6.10897 4.09195L6.76037 3.85788L7.06803 2.26684C7.551 2.21446 8.04428 2.21446 8.52897 2.26684L8.83662 3.8546L9.49147 4.08868C9.98475 4.26546 10.4437 4.51753 10.8544 4.83836L11.3941 5.26067L12.9891 4.72214C13.2813 5.09699 13.5254 5.50129 13.7213 5.92688L12.4374 6.97283L12.5491 7.62594ZM7.80022 5.33597C6.12959 5.33597 4.77522 6.62582 4.77522 8.21685C4.77522 9.80789 6.12959 11.0977 7.80022 11.0977C9.47084 11.0977 10.8252 9.80789 10.8252 8.21685C10.8252 6.62582 9.47084 5.33597 7.80022 5.33597ZM9.16147 9.51325C8.98293 9.68378 8.77075 9.819 8.53713 9.91114C8.30351 10.0033 8.05307 10.0505 7.80022 10.0501C7.28631 10.0501 6.80334 9.85863 6.43897 9.51325C6.25991 9.34322 6.11793 9.14114 6.02118 8.91866C5.92443 8.69617 5.87482 8.45766 5.87522 8.21685C5.87522 7.72743 6.07631 7.26747 6.43897 6.92045C6.80334 6.57344 7.28631 6.38356 7.80022 6.38356C8.31412 6.38356 8.79709 6.57344 9.16147 6.92045C9.34052 7.09049 9.48251 7.29256 9.57926 7.51505C9.67601 7.73753 9.72561 7.97604 9.72522 8.21685C9.72522 8.70628 9.52412 9.16624 9.16147 9.51325Z" fill="#605FF6"/>
<g clip-path="url(#clip1)">
<path d="M20.0408 18.3328L19.4076 17.8172C19.4375 17.6423 19.453 17.4637 19.453 17.285C19.453 17.1064 19.4375 16.9278 19.4076 16.7528L20.0408 16.2372C20.0886 16.1983 20.1228 16.1464 20.1388 16.0885C20.1549 16.0306 20.1521 15.9695 20.1307 15.9131L20.122 15.8892C19.9477 15.4252 19.6866 14.995 19.3515 14.6195L19.3341 14.6002C19.2934 14.5546 19.2392 14.5219 19.1787 14.5063C19.1181 14.4907 19.054 14.4929 18.9947 14.5127L18.2087 14.7788C17.9187 14.5523 17.5948 14.3737 17.2448 14.2484L17.0931 13.4658C17.0816 13.4069 17.0516 13.3527 17.0071 13.3105C16.9625 13.2682 16.9055 13.2399 16.8436 13.2292L16.8175 13.2246C16.3138 13.138 15.784 13.138 15.2803 13.2246L15.2542 13.2292C15.1923 13.2399 15.1353 13.2682 15.0908 13.3105C15.0462 13.3527 15.0162 13.4069 15.0048 13.4658L14.852 14.2521C14.5048 14.3774 14.1815 14.5559 13.8949 14.7806L13.1031 14.5127C13.0439 14.4928 12.9797 14.4904 12.9191 14.5061C12.8585 14.5217 12.8043 14.5545 12.7637 14.6002L12.7463 14.6195C12.4116 14.9953 12.1506 15.4254 11.9758 15.8892L11.9671 15.9131C11.9236 16.0282 11.9594 16.1571 12.057 16.2372L12.698 16.7584C12.668 16.9315 12.6535 17.1082 12.6535 17.2841C12.6535 17.4609 12.668 17.6377 12.698 17.8099L12.057 18.331C12.0092 18.3699 11.9751 18.4218 11.959 18.4797C11.9429 18.5376 11.9458 18.5988 11.9671 18.6551L11.9758 18.679C12.1508 19.1431 12.4099 19.5712 12.7463 19.9487L12.7637 19.9681C12.8044 20.0136 12.8586 20.0463 12.9192 20.0619C12.9797 20.0775 13.0439 20.0753 13.1031 20.0555L13.8949 19.7876C14.183 20.0132 14.5049 20.1918 14.852 20.3161L15.0048 21.1024C15.0162 21.1613 15.0462 21.2155 15.0908 21.2577C15.1353 21.3 15.1923 21.3284 15.2542 21.339L15.2803 21.3436C15.7886 21.4307 16.3092 21.4307 16.8175 21.3436L16.8436 21.339C16.9055 21.3284 16.9625 21.3 17.0071 21.2577C17.0516 21.2155 17.0816 21.1613 17.0931 21.1024L17.2448 20.3198C17.5947 20.1949 17.9204 20.0157 18.2087 19.7894L18.9947 20.0555C19.0539 20.0755 19.1181 20.0778 19.1787 20.0622C19.2393 20.0465 19.2935 20.0137 19.3341 19.9681L19.3515 19.9487C19.6879 19.5703 19.947 19.1431 20.122 18.679L20.1307 18.6551C20.1742 18.5418 20.1385 18.4129 20.0408 18.3328V18.3328ZM18.7211 16.8615C18.7453 17.0005 18.7579 17.1432 18.7579 17.286C18.7579 17.4287 18.7453 17.5714 18.7211 17.7104L18.6573 18.0796L19.3795 18.668C19.27 18.9082 19.1319 19.1356 18.9677 19.3456L18.0705 19.0427L17.7669 19.2803C17.5359 19.4607 17.2787 19.6025 17.0002 19.702L16.6319 19.8336L16.4588 20.7267C16.1858 20.7562 15.9101 20.7562 15.6371 20.7267L15.464 19.8318L15.0986 19.6983C14.823 19.5988 14.5668 19.4571 14.3377 19.2775L14.0341 19.039L13.1311 19.3447C12.9668 19.1339 12.8295 18.9065 12.7193 18.6671L13.4492 18.0732L13.3864 17.7049C13.3632 17.5677 13.3506 17.4259 13.3506 17.286C13.3506 17.1451 13.3622 17.0042 13.3864 16.867L13.4492 16.4987L12.7193 15.9048C12.8285 15.6645 12.9668 15.438 13.1311 15.2272L14.0341 15.5329L14.3377 15.2944C14.5668 15.1149 14.823 14.9731 15.0986 14.8736L15.465 14.742L15.638 13.847C15.9097 13.8175 16.1872 13.8175 16.4598 13.847L16.6329 14.7401L17.0012 14.8718C17.2787 14.9712 17.5368 15.113 17.7679 15.2935L18.0715 15.531L18.9686 15.2281C19.133 15.439 19.2703 15.6664 19.3805 15.9058L18.6583 16.4941L18.7211 16.8615ZM16.0499 15.5734C15.1102 15.5734 14.3483 16.2989 14.3483 17.1939C14.3483 18.0888 15.1102 18.8144 16.0499 18.8144C16.9896 18.8144 17.7514 18.0888 17.7514 17.1939C17.7514 16.2989 16.9896 15.5734 16.0499 15.5734ZM16.8156 17.9231C16.7152 18.019 16.5958 18.0951 16.4644 18.1469C16.333 18.1987 16.1921 18.2253 16.0499 18.2251C15.7608 18.2251 15.4891 18.1174 15.2842 17.9231C15.1835 17.8275 15.1036 17.7138 15.0492 17.5886C14.9948 17.4635 14.9669 17.3293 14.9671 17.1939C14.9671 16.9186 15.0802 16.6599 15.2842 16.4647C15.4891 16.2695 15.7608 16.1627 16.0499 16.1627C16.339 16.1627 16.6106 16.2695 16.8156 16.4647C16.9163 16.5603 16.9962 16.674 17.0506 16.7991C17.105 16.9243 17.1329 17.0584 17.1327 17.1939C17.1327 17.4692 17.0196 17.7279 16.8156 17.9231Z" fill="#605FF6"/>
</g>
</g>
<defs>
<clipPath id="clip0">
<rect width="22" height="22" fill="white"/>
</clipPath>
<clipPath id="clip1">
<rect width="9.9" height="9.42835" fill="white" transform="translate(11.1001 12.5718)"/>
</clipPath>
</defs>
</svg>
