<svg width="114" height="114" viewBox="0 0 114 114" fill="none" xmlns="http://www.w3.org/2000/svg">
<path d="M103.019 47.5214L74.2864 16.3052C73.1371 15.0566 71.5023 14.2549 69.6705 14.179L46.3572 13.213C42.6937 13.0612 39.572 15.9344 39.4202 19.598L38.4543 42.9113C38.3784 44.7431 39.0421 46.4387 40.2233 47.722L68.9556 78.9382C70.1049 80.1869 71.7398 80.9886 73.5716 81.0645C75.4033 81.1404 77.0989 80.4767 78.349 79.2941L102.628 56.9467C103.91 55.7988 104.712 54.1639 104.788 52.3321C104.864 50.5004 104.168 48.7701 103.019 47.5214ZM73.8462 74.4368L45.1152 43.1873L46.0812 19.874L69.3945 20.8399L69.3959 20.8066L98.1282 52.0228L73.8462 74.4368Z" fill="#BAEFFD"/>
<g clip-path="url(#clip0)">
<path d="M79.6496 77.8535L79.8254 35.4275C79.8324 33.7304 79.1795 32.0306 77.8885 30.7289L61.4579 14.1615C58.8759 11.5581 54.6333 11.5405 52.0299 14.1224L35.4625 30.5531C34.1608 31.8441 33.4938 33.5384 33.4865 35.2825L33.3107 77.7086C33.3037 79.4056 33.9566 81.1054 35.2476 82.4071C36.5385 83.7089 38.2328 84.3759 39.9536 84.3594L72.9516 84.4962C74.6721 84.5269 76.3719 83.874 77.6736 82.583C78.9753 81.292 79.6425 79.5506 79.6496 77.8535ZM39.9574 77.7361L40.1569 35.2866L56.7244 18.856L73.155 35.4234L73.1787 35.3999L73.0028 77.826L39.9574 77.7361Z" fill="#605FF6"/>
<path d="M53.1253 34.1619C55.0698 36.1226 58.2356 36.1357 60.1963 34.1912C62.157 32.2467 62.1701 29.0809 60.2256 27.1202C58.2811 25.1595 55.1153 25.1464 53.1546 27.0909C51.1939 29.0354 51.1808 32.2012 53.1253 34.1619Z" fill="#605FF6"/>
</g>
<defs>
<clipPath id="clip0">
<rect width="80" height="80" fill="white" transform="translate(56.8025) rotate(45.2375)"/>
</clipPath>
</defs>
</svg>
