<svg width="126" height="126" viewBox="0 0 126 126" fill="none" xmlns="http://www.w3.org/2000/svg">
<path d="M67.9221 87.191L45.6013 58.9641L23.2806 87.191H34.847V120.684H56.3556V87.191H67.9221Z" fill="#605FF6" fill-opacity="0.78"/>
<path d="M91.1531 92.4328V58.9641H69.6445V92.4328H58.0781L80.3988 120.684L102.72 92.4328H91.1531Z" fill="#99E6FC" fill-opacity="0.72"/>
<path d="M106.534 45.0597C106.534 44.9859 106.534 44.8875 106.534 44.8136C106.534 34.9945 98.5852 27.0457 88.766 27.0457C87.5355 27.0457 86.3297 27.1687 85.173 27.4148C83.2289 14.9133 72.4254 5.34021 59.3824 5.34021C47.3238 5.34021 37.1602 13.5351 34.1824 24.6586C33.8871 24.634 33.5918 24.634 33.2965 24.634C23.4773 24.634 15.5285 32.5828 15.5285 42.4019C15.5285 43.6324 15.6516 44.8136 15.873 45.9703C7.50586 48.825 1.47656 56.7492 1.47656 66.0761C1.47656 74.2957 6.12773 82.4168 12.9445 86.182C14.3473 86.9449 15.8977 87.3632 17.4973 87.3632H20.032L45.6012 54.9773L67.1836 82.2937V56.5031H93.6141V87.3632H102.818C114.581 87.3632 124.573 77.741 124.523 66.0023C124.474 55.3957 116.698 46.6347 106.534 45.0597Z" fill="#A3A3FA"/>
</svg>
