<svg width="75" height="75" viewBox="0 0 75 75" fill="none" xmlns="http://www.w3.org/2000/svg">
<path d="M37.0809 0C16.6361 0 0 16.6315 0 37.0786C0 57.5258 16.6361 74.1573 37.0809 74.1573C57.5257 74.1573 74.1619 57.5258 74.1619 37.0786C74.1619 16.6315 57.5257 0 37.0809 0ZM37.0809 71.6875C17.9982 71.6875 2.47437 56.1614 2.47437 37.0786C2.47437 17.9959 17.9982 2.46975 37.0809 2.46975C56.1637 2.46975 71.6875 17.9959 71.6875 37.0786C71.6875 56.1614 56.1637 71.6875 37.0809 71.6875Z" fill="white"/>
<path d="M57.4169 25.6225C57.6734 25.1477 57.8848 24.6499 58.0482 24.1356C58.1239 23.897 58.1254 23.6411 58.0526 23.4016C57.9798 23.1622 57.8361 22.9505 57.6404 22.7944C57.4448 22.6383 57.2064 22.5453 56.9568 22.5275C56.7071 22.5097 56.4579 22.5681 56.2422 22.6949C55.0572 23.3988 53.7745 23.9233 52.4358 24.2512C50.8107 22.7845 48.7002 21.9715 46.5112 21.9688C45.3219 21.9697 44.145 22.2107 43.0512 22.6774C41.9573 23.1442 40.9689 23.827 40.1453 24.6849C39.3217 25.5429 38.6798 26.5583 38.2581 27.6703C37.8365 28.7823 37.6437 29.968 37.6913 31.1563C32.4905 30.5016 27.7414 27.8699 24.4291 23.8072C24.3022 23.6533 24.14 23.5323 23.9563 23.4544C23.7726 23.3766 23.5729 23.3443 23.374 23.3602C23.1752 23.3761 22.9831 23.4397 22.8141 23.5457C22.6451 23.6517 22.5042 23.7969 22.4034 23.9691C21.6449 25.2708 21.2327 26.7452 21.2059 28.2516C21.1792 29.7579 21.5389 31.246 22.2507 32.5739C22.0762 32.6033 21.9084 32.6645 21.7559 32.7543C21.5689 32.8735 21.4149 33.0379 21.3082 33.2323C21.2015 33.4267 21.1455 33.6448 21.1454 33.8666C21.1454 36.4913 22.3132 38.9009 24.1955 40.5381L24.1146 40.6191C23.9725 40.7798 23.8747 40.9748 23.8309 41.1849C23.7871 41.3949 23.7988 41.6128 23.8649 41.8169C24.2574 43.0415 24.9128 44.1654 25.7852 45.1101C26.6576 46.0548 27.7259 46.7974 28.9154 47.286C26.4724 48.4777 23.7385 48.9425 21.039 48.6249C20.7615 48.5967 20.4825 48.6612 20.2456 48.8085C20.0087 48.9558 19.8274 49.1775 19.7301 49.4389C19.6366 49.7023 19.6349 49.9895 19.7251 50.2539C19.8154 50.5184 19.9923 50.7446 20.2273 50.8958C23.8973 53.2512 28.1667 54.5026 32.5275 54.501C46.8187 54.501 55.3611 42.8923 55.3611 31.6697L55.3588 31.2904C56.7438 30.2091 57.9469 28.9132 58.9224 27.4517C59.0701 27.2307 59.1427 26.9681 59.1295 26.7027C59.1163 26.4372 59.018 26.1831 58.8491 25.9779C58.6802 25.7727 58.4498 25.6273 58.1918 25.5633C57.9338 25.4993 57.6621 25.52 57.4169 25.6225V25.6225ZM53.3816 29.6809C53.2138 29.8016 53.0789 29.9624 52.9892 30.1486C52.8995 30.3348 52.8579 30.5406 52.8682 30.747C52.8821 31.0523 52.889 31.3621 52.889 31.6674C52.889 41.6759 45.274 52.0289 32.5298 52.0289C30.2568 52.03 27.9999 51.6485 25.8536 50.9004C28.4242 50.4078 30.839 49.3055 32.8952 47.6861C33.0953 47.5282 33.2419 47.3125 33.3147 47.0682C33.3876 46.8239 33.3832 46.5631 33.3022 46.3215C33.2213 46.0798 33.0676 45.869 32.8623 45.718C32.657 45.5669 32.41 45.483 32.1552 45.4776C31.1581 45.4586 30.1794 45.2055 29.2981 44.7387C28.4168 44.272 27.6575 43.6046 27.0815 42.7905C27.6666 42.7512 28.2401 42.6541 28.7974 42.5038C29.0671 42.4316 29.3044 42.2701 29.4706 42.0457C29.6367 41.8213 29.7219 41.5472 29.7123 41.2681C29.7026 40.9891 29.5987 40.7215 29.4174 40.5092C29.2361 40.2968 28.9882 40.1521 28.7142 40.0988C27.588 39.8697 26.5454 39.3388 25.6977 38.5628C24.85 37.7868 24.2293 36.795 23.9019 35.6934C24.517 35.8484 25.1483 35.9386 25.7796 35.9594C26.323 35.9571 26.8272 35.6241 26.996 35.1014C27.1648 34.5788 26.9659 34.003 26.5057 33.6978C25.4176 32.9728 24.5798 31.9296 24.1068 30.7107C23.6337 29.4918 23.5484 28.1566 23.8625 26.8874C27.8794 31.009 33.3034 33.4634 39.051 33.7602C39.458 33.7625 39.8142 33.6168 40.0616 33.3185C40.309 33.0202 40.4039 32.6248 40.316 32.2455C39.9997 30.8834 40.1412 29.4551 40.7185 28.1815C41.2958 26.908 42.2768 25.8602 43.5096 25.2003C44.7424 24.5405 46.1583 24.3053 47.5382 24.5313C48.9182 24.7573 50.1851 25.4318 51.1431 26.4504C51.2867 26.6036 51.4669 26.7177 51.6667 26.782C51.8666 26.8463 52.0795 26.8587 52.2855 26.8181C52.667 26.7418 53.044 26.6539 53.4163 26.5521C53.2484 26.6778 53.074 26.7943 52.8937 26.9013C52.6539 27.0482 52.4713 27.2724 52.3759 27.537C52.2806 27.8015 52.2783 28.0907 52.3693 28.3568C52.4603 28.6228 52.6393 28.85 52.8767 29.0007C53.1141 29.1515 53.3958 29.2168 53.6753 29.1861L54.0962 29.1329C53.8644 29.3238 53.6261 29.5066 53.3816 29.6809V29.6809Z" fill="white"/>
</svg>
