<svg width="23" height="23" viewBox="0 0 23 23" fill="none" xmlns="http://www.w3.org/2000/svg">
<path d="M21.3131 18.6254C20.7788 17.36 20.0036 16.2105 19.0304 15.2411C18.0603 14.2689 16.911 13.4938 15.6462 12.9585C15.6348 12.9528 15.6235 12.95 15.6122 12.9443C17.3765 11.6699 18.5235 9.59404 18.5235 7.25195C18.5235 3.37207 15.38 0.228516 11.5001 0.228516C7.62019 0.228516 4.47663 3.37207 4.47663 7.25195C4.47663 9.59404 5.62361 11.6699 7.38796 12.9472C7.37663 12.9528 7.36531 12.9557 7.35398 12.9613C6.08523 13.4966 4.94675 14.2641 3.9697 15.2439C2.99749 16.2141 2.22235 17.3634 1.68708 18.6282C1.16124 19.8665 0.877637 21.1942 0.851633 22.5393C0.850877 22.5695 0.856179 22.5996 0.867226 22.6277C0.878273 22.6558 0.894842 22.6815 0.915956 22.7031C0.93707 22.7248 0.962302 22.742 0.990165 22.7537C1.01803 22.7655 1.04796 22.7715 1.0782 22.7715H2.77741C2.90202 22.7715 3.00115 22.6724 3.00398 22.5506C3.06062 20.3643 3.93855 18.3167 5.4905 16.7647C7.09626 15.159 9.22878 14.2754 11.5001 14.2754C13.7714 14.2754 15.9039 15.159 17.5096 16.7647C19.0616 18.3167 19.9395 20.3643 19.9962 22.5506C19.999 22.6752 20.0981 22.7715 20.2227 22.7715H21.9219C21.9522 22.7715 21.9821 22.7655 22.01 22.7537C22.0378 22.742 22.0631 22.7248 22.0842 22.7031C22.1053 22.6815 22.1219 22.6558 22.1329 22.6277C22.144 22.5996 22.1493 22.5695 22.1485 22.5393C22.1202 21.1855 21.8398 19.8687 21.3131 18.6254V18.6254ZM11.5001 12.123C10.2002 12.123 8.97673 11.6161 8.05632 10.6957C7.13591 9.77529 6.62898 8.55186 6.62898 7.25195C6.62898 5.95205 7.13591 4.72861 8.05632 3.8082C8.97673 2.88779 10.2002 2.38086 11.5001 2.38086C12.8 2.38086 14.0234 2.88779 14.9438 3.8082C15.8642 4.72861 16.3712 5.95205 16.3712 7.25195C16.3712 8.55186 15.8642 9.77529 14.9438 10.6957C14.0234 11.6161 12.8 12.123 11.5001 12.123Z" fill="white"/>
</svg>
