<svg width="119" height="132" viewBox="0 0 119 132" fill="none" xmlns="http://www.w3.org/2000/svg">
<path d="M112.748 107.592C112.855 106.732 112.936 105.872 112.936 104.958C112.936 104.044 112.855 103.184 112.748 102.324L118.418 97.8898C118.929 97.4867 119.063 96.7611 118.741 96.1698L113.366 86.871C113.124 86.441 112.667 86.1991 112.183 86.1991C112.022 86.1991 111.861 86.226 111.726 86.2797L105.034 88.9673C103.637 87.8922 102.132 87.0054 100.492 86.3335L99.4711 79.2115C99.3905 78.5665 98.8261 78.0828 98.1542 78.0828H87.4041C86.7323 78.0828 86.1679 78.5665 86.0873 79.2115L85.066 86.3335C83.4266 87.0054 81.9216 87.9191 80.5241 88.9673L73.8321 86.2797C73.6709 86.226 73.5096 86.1991 73.3484 86.1991C72.8915 86.1991 72.4346 86.441 72.1927 86.871L66.8177 96.1698C66.4683 96.7611 66.6296 97.4867 67.1402 97.8898L72.8109 102.324C72.7034 103.184 72.6227 104.071 72.6227 104.958C72.6227 105.845 72.7034 106.732 72.8109 107.592L67.1402 112.026C66.6296 112.429 66.4952 113.155 66.8177 113.746L72.1927 123.045C72.4346 123.475 72.8915 123.717 73.3752 123.717C73.5365 123.717 73.6977 123.69 73.8321 123.636L80.5241 120.949C81.9216 122.024 83.4266 122.911 85.066 123.583L86.0873 130.705C86.1679 131.35 86.7323 131.833 87.4041 131.833H98.1542C98.8261 131.833 99.3905 131.35 99.4711 130.705L100.492 123.583C102.132 122.911 103.637 121.997 105.034 120.949L111.726 123.636C111.888 123.69 112.049 123.717 112.21 123.717C112.667 123.717 113.124 123.475 113.366 123.045L118.741 113.746C119.063 113.155 118.929 112.429 118.418 112.026L112.748 107.592ZM107.426 102.996C107.534 103.829 107.561 104.394 107.561 104.958C107.561 105.522 107.507 106.114 107.426 106.92L107.05 109.957L109.442 111.838L112.344 114.096L110.463 117.348L107.05 115.977L104.255 114.848L101.836 116.676C100.681 117.536 99.5786 118.181 98.4768 118.638L95.628 119.793L95.198 122.83L94.6605 126.458H90.8979L90.3873 122.83L89.9573 119.793L87.1085 118.638C85.9529 118.154 84.8779 117.536 83.8029 116.729L81.3572 114.848L78.5084 116.004L75.0953 117.374L73.214 114.123L76.1165 111.865L78.5084 109.984L78.1322 106.947C78.0515 106.114 77.9978 105.496 77.9978 104.958C77.9978 104.421 78.0515 103.802 78.1322 102.996L78.5084 99.9592L76.1165 98.078L73.214 95.8204L75.0953 92.5685L78.5084 93.9392L81.3035 95.0679L83.7222 93.2404C84.8779 92.3804 85.9798 91.7354 87.0816 91.2785L89.9304 90.1229L90.3604 87.086L90.8979 83.4578H94.6336L95.1442 87.086L95.5742 90.1229L98.423 91.2785C99.5786 91.7623 100.654 92.3804 101.729 93.1867L104.174 95.0679L107.023 93.9123L110.436 92.5417L112.318 95.7936L109.442 98.078L107.05 99.9592L107.426 102.996ZM92.7792 94.2079C86.8398 94.2079 82.0291 99.0186 82.0291 104.958C82.0291 110.897 86.8398 115.708 92.7792 115.708C98.7186 115.708 103.529 110.897 103.529 104.958C103.529 99.0186 98.7186 94.2079 92.7792 94.2079ZM92.7792 110.333C89.8229 110.333 87.4041 107.914 87.4041 104.958C87.4041 102.002 89.8229 99.583 92.7792 99.583C95.7355 99.583 98.1542 102.002 98.1542 104.958C98.1542 107.914 95.7355 110.333 92.7792 110.333Z" fill="#A3A3FA"/>
<path d="M81.3815 52.3774C81.5712 50.8598 81.7135 49.3421 81.7135 47.7296C81.7135 46.1171 81.5712 44.5994 81.3815 43.0817L91.3886 35.2563C92.2897 34.5449 92.5268 33.2643 91.9577 32.221L82.4723 15.8112C82.0455 15.0524 81.2392 14.6256 80.3855 14.6256C80.101 14.6256 79.8164 14.673 79.5793 14.7678L67.77 19.5105C65.3037 17.6135 62.6478 16.0484 59.7548 14.8627L57.9526 2.29455C57.8103 1.1563 56.8143 0.302612 55.6287 0.302612H36.6579C35.4722 0.302612 34.4762 1.1563 34.3339 2.29455L32.5317 14.8627C29.6387 16.0484 26.9828 17.6609 24.5166 19.5105L12.7073 14.7678C12.4227 14.673 12.1381 14.6256 11.8536 14.6256C11.0473 14.6256 10.2411 15.0524 9.81421 15.8112L0.328819 32.221C-0.287732 33.2643 -0.00316957 34.5449 0.897943 35.2563L10.905 43.0817C10.7153 44.5994 10.573 46.1645 10.573 47.7296C10.573 49.2947 10.7153 50.8598 10.905 52.3774L0.897943 60.2029C-0.00316957 60.9143 -0.240305 62.1948 0.328819 63.2382L9.81421 79.6479C10.2411 80.4067 11.0473 80.8336 11.901 80.8336C12.1856 80.8336 12.4701 80.7862 12.7073 80.6913L24.5166 75.9486C26.9828 77.8457 29.6387 79.4108 32.5317 80.5965L34.3339 93.1646C34.4762 94.3029 35.4722 95.1565 36.6579 95.1565H55.6287C56.8143 95.1565 57.8103 94.3029 57.9526 93.1646L59.7548 80.5965C62.6478 79.4108 65.3037 77.7983 67.77 75.9486L79.5793 80.6913C79.8638 80.7862 80.1484 80.8336 80.433 80.8336C81.2392 80.8336 82.0455 80.4067 82.4723 79.6479L91.9577 63.2382C92.5268 62.1948 92.2897 60.9143 91.3886 60.2029L81.3815 52.3774ZM71.991 44.2674C72.1807 45.7376 72.2281 46.7336 72.2281 47.7296C72.2281 48.7255 72.1332 49.7689 71.991 51.1917L71.327 56.551L75.548 59.8709L80.6701 63.8547L77.3502 69.5934L71.327 67.1746L66.3946 65.1827L62.1261 68.4077C60.0868 69.9254 58.1423 71.0636 56.1978 71.8699L51.1705 73.9093L50.4117 79.2685L49.4632 85.6711H42.8234L41.9223 79.2685L41.1634 73.9093L36.1362 71.8699C34.0968 71.0162 32.1997 69.9254 30.3027 68.5026L25.9868 65.1827L20.9595 67.2221L14.9363 69.6408L11.6164 63.9022L16.7385 59.9183L20.9595 56.5984L20.2956 51.2392C20.1533 49.7689 20.0584 48.6781 20.0584 47.7296C20.0584 46.781 20.1533 45.6902 20.2956 44.2674L20.9595 38.9082L16.7385 35.5883L11.6164 31.6044L14.9363 25.8657L20.9595 28.2845L25.8919 30.2765L30.1604 27.0514C32.1997 25.5338 34.1442 24.3955 36.0887 23.5893L41.116 21.5499L41.8748 16.1906L42.8234 9.788H49.4157L50.3168 16.1906L51.0757 21.5499L56.1029 23.5893C58.1423 24.4429 60.0394 25.5338 61.9364 26.9566L66.2523 30.2765L71.2795 28.2371L77.3028 25.8183L80.6227 31.557L75.548 35.5883L71.327 38.9082L71.991 44.2674ZM46.1433 28.7588C35.6619 28.7588 27.1725 37.2482 27.1725 47.7296C27.1725 58.2109 35.6619 66.7004 46.1433 66.7004C56.6246 66.7004 65.114 58.2109 65.114 47.7296C65.114 37.2482 56.6246 28.7588 46.1433 28.7588ZM46.1433 57.215C40.9263 57.215 36.6579 52.9465 36.6579 47.7296C36.6579 42.5126 40.9263 38.2442 46.1433 38.2442C51.3602 38.2442 55.6287 42.5126 55.6287 47.7296C55.6287 52.9465 51.3602 57.215 46.1433 57.215Z" fill="#A3A3FA"/>
</svg>
